<?xml version="1.0" encoding="UTF-8" standalone="no"?>
<!-- Created with Inkscape (http://www.inkscape.org/) -->

<svg
   width="174.20401mm"
   height="24.871006mm"
   viewBox="0 0 174.20401 24.871006"
   version="1.1"
   id="svg1"
   inkscape:version="1.4.2 (ebf0e940d0, 2025-05-08)"
   sodipodi:docname="logo.svg"
   xmlns:inkscape="http://www.inkscape.org/namespaces/inkscape"
   xmlns:sodipodi="http://sodipodi.sourceforge.net/DTD/sodipodi-0.dtd"
   xmlns:xlink="http://www.w3.org/1999/xlink"
   xmlns="http://www.w3.org/2000/svg"
   xmlns:svg="http://www.w3.org/2000/svg">
  <sodipodi:namedview
     id="namedview1"
     pagecolor="#ffffff"
     bordercolor="#000000"
     borderopacity="0.25"
     inkscape:showpageshadow="2"
     inkscape:pageopacity="0.0"
     inkscape:pagecheckerboard="0"
     inkscape:deskcolor="#d1d1d1"
     inkscape:document-units="mm"
     inkscape:zoom="1"
     inkscape:cx="279.5"
     inkscape:cy="238"
     inkscape:window-width="1920"
     inkscape:window-height="1080"
     inkscape:window-x="0"
     inkscape:window-y="0"
     inkscape:window-maximized="1"
     inkscape:current-layer="layer1" />
  <defs
     id="defs1">
    <inkscape:path-effect
       effect="fill_between_many"
       method="originald"
       linkedpaths="#text2,0,1|#text1,0,1"
       id="path-effect3"
       is_visible="true"
       lpeversion="0"
       join="true"
       close="true"
       autoreverse="true" />
  </defs>
  <g
     inkscape:label="Camada 1"
     inkscape:groupmode="layer"
     id="layer1"
     transform="translate(71.745825,-134.12702)">
    <path
       style="font-style:italic;font-variant:normal;font-weight:900;font-stretch:normal;font-size:50.8px;line-height:0px;font-family:'Incised 901 Nord';-inkscape-font-specification:'Incised 901 Nord Heavy Italic';text-align:start;writing-mode:lr-tb;direction:ltr;text-anchor:start;display:none;fill:none;fill-opacity:1;stroke:#fef105;stroke-width:4;stroke-opacity:1"
       sodipodi:type="inkscape:offset"
       inkscape:radius="2.8058648"
       inkscape:original="M 72.972656 136.67578 C 71.228024 136.67578 69.57965 136.80732 67.976562 137.23633 A 2.773541 2.773541 0 0 0 67.955078 137.24219 C 66.720469 137.58332 65.674642 138.29417 64.734375 139.13867 C 64.471283 138.77671 64.295105 138.34923 63.919922 138.08984 C 62.51831 137.12082 61.17244 137.10742 59.849609 137.10742 L 48.830078 137.10742 A 2.773541 2.773541 0 0 0 46.597656 138.82031 C 45.819661 138.24935 37.888672 137.10742 34.701172 137.10742 C 33.906901 137.55859 31.879557 139.19661 31.660156 139.56445 A 2.773541 2.773541 0 0 0 29.589844 137.35352 C 26.805093 136.93957 24.226623 136.74805 21.882812 136.74805 C 18.591806 136.74805 15.767368 136.89444 13.628906 139 C 11.884059 140.71576 11.001953 143.03789 11.001953 145.52539 C 11.001953 146.2766 11.230435 147.0795 11.539062 147.83789 C 11.048828 148.16406 9.468099 151.11719 9.1679688 152.26758 A 2.773541 2.773541 0 0 0 11.390625 155.70117 C 14.300936 156.19252 17.150667 156.44141 19.90625 156.44141 C 22.065794 156.44141 24.048005 156.24405 25.746094 155.43359 C 26.076172 155.62565 30.943359 156.00977 33.046875 156.00977 C 33.845052 155.55143 35.661458 154.25716 35.771484 154.06836 L 36.212891 154.06836 A 2.773541 2.773541 0 0 0 38.636719 156.00977 L 44.191406 156.00977 A 2.773541 2.773541 0 0 0 44.542969 155.66016 C 44.779297 155.77669 52.358724 156.00977 55.912109 156.00977 C 57.18361 156.00977 58.353926 155.97948 59.578125 155.66797 C 60.58367 155.4121 61.583683 154.82572 62.429688 154.05859 C 62.778151 154.4418 63.162835 154.79037 63.607422 155.06055 C 65.53878 156.23425 67.714149 156.42383 70.382812 156.42383 C 73.123086 156.42383 75.62305 156.14613 77.617188 154.95703 C 78.328125 155.30794 83.548177 156.00977 85.447266 156.00977 A 2.773541 2.773541 0 0 0 87.03125 154.79297 A 2.773541 2.773541 0 0 0 89.132812 156.00977 L 95.875 156.00977 A 2.773541 2.773541 0 0 0 98.166016 151.67188 L 96.527344 149.27344 C 96.998946 148.99974 97.521145 148.81435 97.914062 148.41602 C 99.348323 146.96198 99.90625 144.93229 99.90625 142.88281 C 99.90625 141.40875 99.483511 139.76691 98.279297 138.61523 C 97.075083 137.46355 95.475362 137.10742 93.986328 137.10742 L 83.326172 137.10742 A 2.773541 2.773541 0 0 0 80.888672 138.97852 C 80.58113 138.66179 80.268228 138.3477 79.875 138.11719 A 2.773541 2.773541 0 0 0 79.871094 138.11523 C 77.809533 136.91041 75.508648 136.67578 72.972656 136.67578 z M -18.796875 136.72852 C -20.532927 136.72852 -22.140934 136.88681 -23.640625 137.26172 A 2.773541 2.773541 0 0 0 -23.650391 137.26562 C -24.340091 137.44035 -24.912645 137.84619 -25.509766 138.20508 C -26.244141 137.83919 -36.60612 137.10742 -41.052734 137.10742 A 2.773541 2.773541 0 0 0 -42.023438 137.85352 A 2.773541 2.773541 0 0 0 -43.533203 137.10742 L -51.173828 137.10742 A 2.773541 2.773541 0 0 0 -53.572266 138.49023 L -53.707031 138.72461 C -54.264323 138.18555 -60.341146 137.10742 -62.822266 137.10742 C -63.715495 137.79297 -67.886068 148.06771 -69.078125 152.51953 C -68.184896 153.68294 -62.779948 156.00977 -60.970703 156.00977 A 2.773541 2.773541 0 0 0 -59.535156 154.9082 A 2.773541 2.773541 0 0 0 -58.328125 156.00977 L -55.236328 156.00977 A 2.773541 2.773541 0 0 0 -53.951172 155.30664 C -53.474609 155.54102 -48.914714 156.00977 -47.111328 156.00977 A 2.773541 2.773541 0 0 0 -46.138672 155.26367 A 2.773541 2.773541 0 0 0 -44.628906 156.00977 L -31.291016 156.00977 A 2.773541 2.773541 0 0 0 -28.835938 154.12695 C -28.583062 154.37577 -28.447776 154.73368 -28.150391 154.92969 C -26.347337 156.11808 -24.237728 156.40625 -21.763672 156.40625 C -19.662728 156.40625 -17.408533 156.09448 -15.042969 155.62109 C -14.820312 155.75065 -10.169271 156.00977 -8.0664062 156.00977 C -7.2682292 155.55143 -5.4518229 154.25716 -5.3417969 154.06836 L -4.9003906 154.06836 A 2.773541 2.773541 0 0 0 -2.4746094 156.00977 L 3.0800781 156.00977 A 2.773541 2.773541 0 0 0 5.8535156 153.25195 L 5.9257812 139.89648 A 2.773541 2.773541 0 0 0 3.1523438 137.10742 L -6.4121094 137.10742 A 2.773541 2.773541 0 0 0 -8.7949219 138.46094 L -9.3613281 139.41016 A 2.773541 2.773541 0 0 0 -11.193359 137.64258 C -13.820616 137.04809 -16.344586 136.72852 -18.796875 136.72852 z M 54.376953 144.70508 L 54.824219 145.2832 L 54.695312 145.38281 C 54.637469 145.30085 54.539221 145.26341 54.498047 145.17969 C 54.381045 144.94179 54.399658 144.8536 54.376953 144.70508 z "
       xlink:href="#path4"
       id="path5"
       inkscape:href="#path4"
       d="m 72.972656,133.86914 c -1.885668,0 -3.79197,0.14009 -5.720703,0.65625 a 2.8061454,2.8061454 0 0 0 -0.002,0.002 c -0.01442,0.004 -0.03053,0.008 -0.04492,0.0117 -0.848517,0.23473 -1.595103,0.59272 -2.28125,0.99805 -1.903248,-1.07308 -3.860108,-1.23633 -5.074219,-1.23633 H 48.830078 a 2.8061454,2.8061454 0 0 0 -0.341797,0.0215 c -0.688522,0.0847 -1.289211,0.45567 -1.896484,0.78906 -0.664591,-0.36107 -1.337095,-0.73722 -2.091797,-0.80078 a 2.8061454,2.8061454 0 0 0 -0.236328,-0.01 h -9.5625 c -1.140034,-1.5e-4 -2.194516,0.45988 -3.128906,1.11133 -0.445668,-0.26164 -0.810921,-0.65966 -1.314454,-0.7832 a 2.8061454,2.8061454 0 0 0 -0.255859,-0.0508 c -2.90941,-0.43248 -5.622479,-0.63671 -8.119141,-0.63671 -3.373756,0 -7.248593,0.13321 -10.220703,3.05859 -1.615468,1.58854 -2.4594391,3.62987 -2.9453121,5.76367 l 0.015625,-2.85156 c 0.016404,-2.93169 -2.6483421,-5.61127 -5.5800781,-5.61133 h -9.5644532 c -1.153086,-1.5e-4 -2.2156668,0.47343 -3.15625,1.13867 -0.2857649,-0.1451 -0.5127306,-0.39235 -0.8203126,-0.48437 a 2.8061454,2.8061454 0 0 0 -0.185547,-0.0488 c -2.793432,-0.63209 -5.526603,-0.98438 -8.222656,-0.98438 -1.906608,0 -3.7462,0.1729 -5.523437,0.61719 a 2.8061454,2.8061454 0 0 0 -0.01953,0.006 c -0.002,5.1e-4 -0.0019,0.001 -0.0039,0.002 -0.424067,0.10785 -0.508459,0.25398 -0.832031,0.4004 -0.78334,-0.40388 -1.647644,-0.64431 -2.529297,-0.64649 a 2.8061454,2.8061454 0 0 0 -0.0078,0 h -13.339843 a 2.8061454,2.8061454 0 0 0 -1.175782,0.25977 c -0.01871,0.009 -0.03021,0.0282 -0.04883,0.0371 -0.279292,-0.0895 -0.545903,-0.21969 -0.835937,-0.26368 a 2.8061454,2.8061454 0 0 0 -0.419922,-0.0332 h -7.640625 a 2.8061454,2.8061454 0 0 0 -0.002,0 c -0.857602,3.8e-4 -1.682944,0.28816 -2.449219,0.67188 -0.284525,-0.16189 -0.518727,-0.4056 -0.828125,-0.51368 a 2.8061454,2.8061454 0 0 0 -0.925781,-0.1582 h -7.44336 c -2.435398,-3.5e-4 -4.761126,1.78604 -5.390625,4.13867 l -3.576171,13.35352 a 2.8061454,2.8061454 0 0 0 0,0.002 c -0.440285,1.64598 -0.07277,3.48838 0.964843,4.83985 1.037612,1.35146 2.721931,2.18185 4.425782,2.18164 h 5.427734 a 2.8061454,2.8061454 0 0 0 0.888672,-0.14454 c 0.157727,-0.0526 0.285303,-0.16756 0.4375,-0.23437 0.04877,0.0248 0.06963,0.086 0.11914,0.10937 a 2.8061454,2.8061454 0 0 0 1.197266,0.26954 h 3.091797 a 2.8061454,2.8061454 0 0 0 0.648437,-0.0762 c 0.270399,-0.0643 0.464991,-0.29239 0.722657,-0.39648 0.312206,0.11239 0.553535,0.37884 0.880859,0.43359 a 2.8061454,2.8061454 0 0 0 0.462891,0.0391 h 5.410156 a 2.8061454,2.8061454 0 0 0 1.173828,-0.25782 c 0.01955,-0.009 0.03134,-0.0298 0.05078,-0.0391 0.279856,0.0898 0.54724,0.21959 0.837891,0.26367 a 2.8061454,2.8061454 0 0 0 0.419922,0.0332 h 13.33789 a 2.8061454,2.8061454 0 0 0 0.175782,-0.006 c 0.969372,-0.0607 1.866989,-0.4887 2.673828,-1.02735 2.143412,1.0303 4.420479,1.42969 6.677734,1.42969 2.011836,0 4.07366,-0.33567 6.150391,-0.71094 0.06349,0.0287 0.115156,0.0792 0.179687,0.10547 a 2.8061454,2.8061454 0 0 0 1.058594,0.20899 h 6.3085937 c 1.0743674,-2.3e-4 2.0914687,-0.39036 2.9921876,-0.97461 0.7377093,0.45703 1.5085961,0.89502 2.3749999,0.96484 a 2.8061454,2.8061454 0 0 0 0.2246094,0.01 h 5.5546875 c 1.8135765,-4e-5 3.4446399,-1.07894 4.4824219,-2.55469 0.835113,1.10656 1.9884826,1.9754 3.361328,2.20703 3.053414,0.51551 6.057885,0.7793 8.982422,0.7793 1.824289,0 3.687626,-0.24833 5.521484,-0.82422 0.153134,0.0664 0.271177,0.19765 0.429688,0.25 a 2.8061454,2.8061454 0 0 0 0.878906,0.14258 h 6.310547 c 1.074367,-2.3e-4 2.091469,-0.39036 2.992187,-0.97461 0.736512,0.45626 1.506162,0.89451 2.371094,0.96484 a 2.8061454,2.8061454 0 0 0 0.226563,0.01 h 5.554687 a 2.8061454,2.8061454 0 0 0 0.324219,-0.11719 2.8061454,2.8061454 0 0 0 0.736328,0.11719 h 10.660156 c 1.316063,0 2.761183,-0.0235 4.357422,-0.42969 0.750033,-0.19085 1.442905,-0.48856 2.091797,-0.84961 2.557561,1.47741 5.293057,1.69336 8.021484,1.69336 2.263682,0 4.545459,-0.35117 6.736329,-1.16406 0.799103,0.44172 1.674595,0.73401 2.58789,0.74804 a 2.8061454,2.8061454 0 0 0 0.04297,0.002 h 5.697266 a 2.8061454,2.8061454 0 0 0 0.792968,-0.11524 c 0.321808,-0.0949 0.59169,-0.30317 0.890625,-0.45508 0.580204,0.25672 1.167562,0.51702 1.800782,0.5625 a 2.8061454,2.8061454 0 0 0 0.201171,0.008 H 95.875 c 2.018181,5.4e-4 3.991084,-1.19003 4.93359,-2.97461 0.94251,-1.78458 0.81214,-4.08543 -0.32617,-5.75196 l -0.16015,-0.23437 c 1.73724,-2.0538 2.39062,-4.61275 2.39062,-6.97266 0,-2.01051 -0.56433,-4.44929 -2.49414,-6.29492 -1.892441,-1.80988 -4.296005,-2.28711 -6.232422,-2.28711 H 83.326172 a 2.8061454,2.8061454 0 0 0 -0.189453,0.008 c -0.994464,0.0673 -1.924003,0.49316 -2.742188,1.06055 -2.450583,-1.16729 -5.003675,-1.5 -7.421875,-1.5 z m -97.398437,0.70508 c -0.190614,0.0605 -0.762431,0.24871 0,0 z m 77.519531,8.60547 3.769531,0.5664 c 0.06992,0.10162 0.08319,0.0547 0.152344,0.19532 0.0562,0.11427 0.217163,0.87882 0.134766,0.33984 l -4.441407,1.9043 z M -3.25,156.05078 -3.7285156,156.875 h -0.3613281 c 0.2703777,-0.28957 0.6394158,-0.4814 0.8398437,-0.82422 z m 41.113281,0 -0.478515,0.82422 h -0.361329 c 0.270378,-0.28957 0.639416,-0.4814 0.839844,-0.82422 z" />
    <path
       style="font-style:italic;font-variant:normal;font-weight:900;font-stretch:normal;font-size:50.8px;line-height:0px;font-family:'Incised 901 Nord';-inkscape-font-specification:'Incised 901 Nord Heavy Italic';text-align:start;writing-mode:lr-tb;direction:ltr;text-anchor:start;display:none;fill:#f9911e;fill-opacity:1;stroke:none;stroke-width:4"
       sodipodi:type="inkscape:offset"
       inkscape:radius="2.7732637"
       inkscape:original="M 72.972656 139.44922 C 71.37275 139.44922 69.969689 139.57446 68.693359 139.91602 C 67.327148 140.29352 66.284784 141.13925 65.332031 142.52344 C 64.720831 143.40428 64.056435 145.02092 63.625 147.25 C 63.481188 147.98704 63.408203 148.65247 63.408203 149.26367 C 63.408203 152.55337 65.45726 153.65039 70.382812 153.65039 C 73.744412 153.65039 75.938874 153.20143 77.287109 151.69141 C 78.275815 150.57687 79.012682 149.12031 79.498047 147.30469 C 79.821623 146.13622 79.982422 145.05786 79.982422 144.0332 C 79.982422 142.25353 79.515291 141.12097 78.472656 140.50977 C 77.088468 139.70082 75.309597 139.44922 72.972656 139.44922 z M -18.796875 139.50195 C -20.360828 139.50195 -21.74635 139.64753 -22.96875 139.95312 C -24.316985 140.29468 -25.323036 141.13845 -26.257812 142.55859 C -26.904965 143.52932 -27.534205 145.11084 -27.929688 147.16016 C -28.091476 148.00505 -28.181641 148.74192 -28.181641 149.37109 C -28.181641 152.33721 -26.167907 153.63281 -21.763672 153.63281 C -19.732331 153.63281 -17.503394 153.36311 -15.058594 152.8418 L -13.441406 146.76562 L -19.103516 146.76562 L -20.019531 150.19922 C -20.163343 150.2172 -20.29018 150.2168 -20.416016 150.2168 C -21.764251 150.2168 -22.375 149.69466 -22.375 148.49023 C -22.375 147.19593 -21.690918 145.59637 -21.007812 144.94922 C -20.288754 144.26611 -19.13821 144.05078 -17.484375 144.05078 C -16.243999 144.05078 -14.716412 144.17686 -12.882812 144.39258 L -11.804688 140.34766 C -14.267464 139.79039 -16.585769 139.50195 -18.796875 139.50195 z M 21.882812 139.52148 C 18.772883 139.52148 16.742689 139.82607 15.574219 140.97656 C 14.495631 142.03717 13.775391 143.81763 13.775391 145.52539 C 13.775391 147.88031 15.178337 148.54492 18.324219 148.54492 C 18.486007 148.54492 19.042184 148.52734 19.958984 148.52734 C 20.534231 148.52734 20.787109 148.68926 20.787109 149.13867 C 20.787109 149.83975 19.924639 149.98242 18.037109 149.98242 C 16.545062 149.98242 14.783294 149.80325 12.751953 149.51562 L 11.851562 152.9668 C 14.619939 153.43419 17.317638 153.66797 19.90625 153.66797 C 22.638673 153.66797 24.507311 153.28992 25.675781 152.19336 C 26.646511 151.29454 27.240234 149.78553 27.240234 148.00586 C 27.240234 146.10035 26.090128 145.32812 23.609375 145.32812 L 21.451172 145.32812 C 20.480443 145.32812 20.048828 145.3268 20.048828 144.76953 C 20.048828 143.99654 21.254021 143.83594 23.716797 143.83594 C 24.939197 143.83594 26.376618 143.99634 28.066406 144.33789 L 29.181641 140.0957 C 26.521123 139.70022 24.075942 139.52148 21.882812 139.52148 z M -62.822266 139.88086 L -66.398438 153.23633 L -60.970703 153.23633 L -59.585938 148.04102 C -59.406173 147.35791 -59.207905 146.51294 -58.992188 145.48828 C -58.920282 146.65675 -58.866429 147.48494 -58.8125 147.98828 L -58.328125 153.23633 L -55.236328 153.23633 L -51.695312 147.69922 C -51.317807 147.106 -50.903333 146.4066 -50.417969 145.59766 C -50.795475 146.82006 -51.010524 147.52061 -51.064453 147.73633 L -52.521484 153.23633 L -47.111328 153.23633 L -43.533203 139.88086 L -51.173828 139.88086 L -54.373047 145.39844 C -54.7146 145.99166 -55.02061 146.54939 -55.236328 147.05273 C -55.218352 146.72916 -55.199219 146.31584 -55.199219 145.8125 C -55.199219 145.5069 -55.19882 145.16462 -55.216797 144.78711 L -55.378906 139.88086 L -62.822266 139.88086 z M -41.052734 139.88086 L -44.628906 153.23633 L -31.291016 153.23633 L -30.337891 149.69531 L -38.013672 149.69531 L -37.654297 148.34766 L -29.996094 148.34766 L -29.224609 145.48828 L -36.900391 145.48828 L -36.541016 144.14062 L -28.865234 144.14062 L -27.712891 139.88086 L -41.052734 139.88086 z M -6.4121094 139.88086 L -14.375 153.23633 L -8.0664062 153.23633 L -6.9335938 151.29492 L -2.4570312 151.29492 L -2.4746094 153.23633 L 3.0800781 153.23633 L 3.1523438 139.88086 L -6.4121094 139.88086 z M 34.701172 139.88086 L 26.736328 153.23633 L 33.046875 153.23633 L 34.179688 151.29492 L 38.65625 151.29492 L 38.636719 153.23633 L 44.191406 153.23633 L 44.263672 139.88086 L 34.701172 139.88086 z M 48.830078 139.88086 L 45.251953 153.23633 L 55.912109 153.23633 C 58.30298 153.23633 59.81399 153.0396 60.892578 151.78125 C 61.467825 151.11612 61.826172 150.05555 61.826172 148.95898 C 61.826172 147.35908 60.911044 146.6934 58.84375 146.60352 C 61.702009 146.49566 63.138672 145.07498 63.138672 142.39648 C 63.138672 140.34717 62.114644 139.88086 59.849609 139.88086 L 48.830078 139.88086 z M 83.326172 139.88086 L 79.75 153.23633 L 85.447266 153.23633 L 86.238281 150.27148 C 86.274234 150.12767 86.40147 149.56994 86.617188 148.61719 C 86.832905 149.12053 87.065494 149.64079 87.371094 150.16211 L 89.132812 153.23633 L 95.875 153.23633 L 92.082031 147.68164 L 92.386719 147.68164 C 95.532601 147.68164 97.132812 146.04667 97.132812 142.88281 C 97.132812 140.85147 96.125528 139.88086 93.986328 139.88086 L 83.326172 139.88086 z M -2.2597656 143.02539 L -2.3125 147.98828 L -5.2617188 147.98828 L -2.2597656 143.02539 z M 38.853516 143.02539 L 38.798828 147.98828 L 35.851562 147.98828 L 38.853516 143.02539 z M 53.431641 143.58398 L 55.769531 143.58398 C 56.668355 143.58398 57.0625 143.69229 57.0625 144.35742 C 57.0625 145.16636 56.452869 145.57812 55.230469 145.57812 L 52.910156 145.57812 L 53.431641 143.58398 z M 88 143.69141 L 90.230469 143.69141 C 91.111316 143.69141 91.488281 143.97861 91.488281 144.67969 C 91.488281 145.95602 90.733117 146.45898 89.115234 146.45898 L 87.246094 146.45898 L 88 143.69141 z M 72.109375 144.14062 C 73.349751 144.14062 73.960938 144.59101 73.960938 145.50781 C 73.960938 145.99318 73.816522 146.67464 73.546875 147.51953 C 73.349134 148.16668 73.133365 148.68926 72.755859 149.13867 C 72.360377 149.60606 71.786262 149.83984 71.03125 149.83984 C 69.790874 149.83984 69.162109 149.40736 69.162109 148.65234 C 69.162109 147.64566 69.609902 146.0461 70.203125 145.11133 C 70.616584 144.46418 71.246504 144.14063 72.109375 144.14062 z M 52.298828 147.86133 L 54.816406 147.86133 C 55.679277 147.86133 56.056641 148.05952 56.056641 148.63477 C 56.056641 149.49764 55.426681 150.07227 54.240234 150.07227 L 51.707031 150.07227 L 52.298828 147.86133 z "
       xlink:href="#text1"
       id="path4"
       d="m 72.972656,136.67578 c -1.744632,0 -3.393006,0.13154 -4.996094,0.56055 a 2.773541,2.773541 0 0 0 -0.02148,0.006 c -1.234609,0.34113 -2.280436,1.05198 -3.220703,1.89648 -0.263092,-0.36196 -0.43927,-0.78944 -0.814453,-1.04883 -1.401612,-0.96902 -2.747482,-0.98242 -4.070313,-0.98242 H 48.830078 a 2.773541,2.773541 0 0 0 -2.232422,1.71289 2.773541,2.773541 0 0 0 -2.333984,-1.71289 h -9.5625 a 2.773541,2.773541 0 0 0 -2.382813,1.35352 l -0.658203,1.10351 a 2.773541,2.773541 0 0 0 -2.070312,-2.21093 c -2.784751,-0.41395 -5.363221,-0.60547 -7.707032,-0.60547 -3.291006,0 -6.115444,0.14639 -8.253906,2.25195 -1.744847,1.71576 -2.626953,4.03789 -2.626953,6.52539 0,0.75121 0.228482,1.55411 0.53711,2.3125 a 2.773541,2.773541 0 0 0 -1.470704,0.97852 l -0.9003902,3.45117 a 2.773541,2.773541 0 0 0 2.2226562,3.43359 c 2.910311,0.49135 5.760042,0.74024 8.515625,0.74024 2.159544,0 4.141755,-0.19736 5.839844,-1.00782 a 2.773541,2.773541 0 0 0 0.990234,0.57618 h 6.310547 a 2.773541,2.773541 0 0 0 2.394531,-1.375 l 0.330078,-0.56641 h 0.441407 a 2.773541,2.773541 0 0 0 2.423828,1.94141 h 5.554687 a 2.773541,2.773541 0 0 0 0.351563,-0.34961 2.773541,2.773541 0 0 0 0.708984,0.34961 h 10.660156 c 1.271501,0 2.441817,-0.0303 3.666016,-0.3418 1.005545,-0.25587 2.005558,-0.84225 2.851562,-1.60938 0.348464,0.38321 0.733148,0.73178 1.177735,1.00196 1.931358,1.1737 4.106727,1.36328 6.77539,1.36328 2.740274,0 5.240238,-0.2777 7.234375,-1.4668 A 2.773541,2.773541 0 0 0 79.75,156.00977 h 5.697266 a 2.773541,2.773541 0 0 0 1.583984,-1.2168 2.773541,2.773541 0 0 0 2.101562,1.2168 H 95.875 a 2.773541,2.773541 0 0 0 2.291016,-4.3379 l -1.638672,-2.39843 c 0.471602,-0.2737 0.993801,-0.45909 1.386718,-0.85742 1.434261,-1.45404 1.992188,-3.48373 1.992188,-5.53321 0,-1.47406 -0.422739,-3.1159 -1.626953,-4.26758 -1.204214,-1.15168 -2.803935,-1.50781 -4.292969,-1.50781 H 83.326172 a 2.773541,2.773541 0 0 0 -2.4375,1.8711 C 80.58113,138.66179 80.268228,138.3477 79.875,138.11719 a 2.773541,2.773541 0 0 0 -0.0039,-0.002 c -2.061561,-1.20482 -4.362446,-1.43945 -6.898438,-1.43945 z m -91.769531,0.0527 c -1.736052,0 -3.344059,0.15829 -4.84375,0.5332 a 2.773541,2.773541 0 0 0 -0.0098,0.004 c -0.6897,0.17473 -1.262254,0.58057 -1.859375,0.93946 a 2.773541,2.773541 0 0 0 -2.203125,-1.09766 h -13.339843 a 2.773541,2.773541 0 0 0 -0.970703,0.7461 2.773541,2.773541 0 0 0 -1.509766,-0.7461 h -7.640625 a 2.773541,2.773541 0 0 0 -2.398438,1.38281 l -0.134765,0.23438 a 2.773541,2.773541 0 0 0 -1.671875,-1.61719 h -7.44336 a 2.773541,2.773541 0 0 0 -2.679687,2.05664 l -3.576172,13.35547 a 2.773541,2.773541 0 0 0 2.679688,3.49024 h 5.427734 a 2.773541,2.773541 0 0 0 1.435547,-1.10157 2.773541,2.773541 0 0 0 1.207031,1.10157 h 3.091797 a 2.773541,2.773541 0 0 0 1.285156,-0.70313 2.773541,2.773541 0 0 0 1.429688,0.70313 h 5.410156 a 2.773541,2.773541 0 0 0 0.972656,-0.7461 2.773541,2.773541 0 0 0 1.509766,0.7461 h 13.33789 a 2.773541,2.773541 0 0 0 2.455079,-1.88282 c 0.252875,0.24882 0.388161,0.60673 0.685546,0.80274 1.803054,1.18839 3.912663,1.47656 6.386719,1.47656 2.100944,0 4.355139,-0.31177 6.720703,-0.78516 a 2.773541,2.773541 0 0 0 0.667969,0.38868 h 6.3085937 a 2.773541,2.773541 0 0 0 2.3945313,-1.375 l 0.3300781,-0.56641 h 0.4414063 a 2.773541,2.773541 0 0 0 2.4257812,1.94141 h 5.5546875 a 2.773541,2.773541 0 0 0 2.7734375,-2.75782 l 0.072266,-13.35547 a 2.773541,2.773541 0 0 0 -2.7734374,-2.78906 h -9.5644532 a 2.773541,2.773541 0 0 0 -2.3828125,1.35352 l -0.5664062,0.94922 a 2.773541,2.773541 0 0 0 -1.8320309,-1.76758 c -2.627257,-0.59449 -5.151227,-0.91406 -7.603516,-0.91406 z m 73.173828,7.97656 0.447266,0.57812 -0.128907,0.0996 c -0.05784,-0.082 -0.156091,-0.1194 -0.197265,-0.20312 -0.117002,-0.2379 -0.09839,-0.32609 -0.121094,-0.47461 z"
       inkscape:href="#text1" />
    <path
       style="fill:#fef105;fill-opacity:1;stroke:#fef105;stroke-width:5.34506;stroke-opacity:1"
       d="m 532.22422,90.676086 c -11.52491,-0.02147 -24.07313,1.584083 -33.01305,9.564584 -9.57766,8.57224 -14.09605,22.01884 -12.97651,34.66412 -4.16676,5.29102 -4.8849,12.27031 -6.55213,18.589 -1.49883,5.77706 -0.87741,12.41797 3.36669,16.92654 3.21561,3.98955 8.11902,6.07118 13.13327,6.5359 10.06694,1.69071 20.26708,2.57608 30.47861,2.17228 7.49611,-0.17406 15.22173,0.003 22.29131,-2.89803 2.01865,-1.34514 3.76359,1.22003 5.86814,1.26892 6.81297,0.44258 13.72325,0.14876 20.57309,0.12182 4.11158,0.0457 8.39263,-0.74373 11.64655,-3.42643 5.53313,4.69167 13.25653,3.41909 19.94745,3.68687 5.94477,-0.0932 12.06862,0.37481 17.84892,-1.03246 13.97233,0.60347 27.97455,0.1363 41.95742,0.12068 6.00034,0.15106 12.11707,-0.53068 17.52863,-3.30473 1.57712,-0.52534 3.06474,-2.48698 4.52921,-0.79066 10.93337,6.32183 23.99021,6.11809 36.20815,5.70921 6.37811,-0.11498 12.76529,-1.67908 18.67135,-3.71979 6.9758,4.3105 15.48401,2.67129 23.23569,2.93006 4.90604,-0.19221 10.02658,0.34381 14.7202,-1.33492 6.40679,2.19539 13.33734,1.12253 19.97922,1.42283 6.49132,-0.29401 13.33799,0.75389 19.52415,-1.70042 7.66393,-3.55542 12.00558,-12.85357 9.53973,-20.98326 -0.85861,-2.93995 -2.51171,-5.55623 -4.17842,-8.09444 6.3198,-6.20841 9.80633,-15.01092 9.58892,-23.85434 0.22512,-5.49096 0.004,-11.18924 -2.71534,-16.12205 -4.57231,-9.561238 -15.2052,-15.555992 -25.73122,-14.970879 -14.60924,-0.134136 -29.23254,-0.137269 -43.83471,-0.04336 -3.30752,0.256503 -6.25558,2.25932 -8.75098,4.18804 -10.79601,-5.562654 -23.37968,-5.803023 -35.24393,-5.129936 -7.91133,0.527598 -15.99058,2.104538 -22.80995,6.346657 -5.47926,-3.994613 -12.38381,-4.867295 -18.98209,-4.82338 -14.37208,-0.08796 -28.75761,-0.296929 -43.12316,0.16849 -2.34184,0.0089 -4.67031,1.050764 -6.72166,1.703548 -5.69767,-3.585711 -12.77032,-2.339848 -19.15264,-2.646277 -10.0166,0.180492 -20.06388,-0.229095 -30.06033,0.473166 -2.80529,0.307604 -5.34327,1.852206 -7.43498,3.592158 -5.99084,-3.947049 -13.50689,-3.643533 -20.35918,-4.541922 -6.31666,-0.530596 -12.65685,-0.815447 -18.99642,-0.767594 z m 195.75119,25.411654 c 5.65773,0.25884 11.95303,0.14992 16.76892,3.52862 1.56658,2.93962 0.87158,6.57026 0.75268,9.76968 -0.99722,7.49716 -3.50581,15.3048 -9.04737,20.68909 -5.7176,3.76889 -12.97863,3.21355 -19.53313,3.49361 -5.33233,-0.11697 -11.25739,0.0711 -15.89126,-2.95361 -2.5156,-2.61182 -1.33188,-6.74114 -1.15872,-9.97269 1.32583,-8.17382 3.71657,-17.43383 11.1901,-22.13231 5.31115,-2.15206 11.25371,-2.32923 16.91878,-2.42239 z M 538.22496,98.328587 c 4.06424,0 4.59228,18.233063 8.64134,18.582263 -6.13955,0.041 -12.40756,-0.63843 -18.45176,0.67673 -5.17683,1.07964 -9.44775,5.90303 -8.89684,11.33649 0.0942,1.92989 0.74835,3.85236 1.96388,5.36545 -3.05688,-0.23064 -6.48773,0.28649 -9.26282,-1.20843 -0.89422,-1.40023 -0.12018,-3.45612 -0.0808,-5.03469 0.83834,-4.47646 3.28915,-9.87459 8.40873,-10.46111 4.6323,-1.03158 12.94847,-19.256703 17.67826,-19.256703 z m 62.5244,19.449573 h 9.96924 v 34.20491 c -1.69888,-0.52255 -5.37315,1.28177 -5.24282,-1.39546 -1.19869,-4.11684 -5.66456,-6.21031 -9.73832,-5.6756 -5.87135,0.22002 -11.81776,-0.47766 -17.63347,0.4226 -3.04778,1.08087 -4.7143,3.94017 -6.13816,6.64846 -1.33293,-0.46086 -6.27017,1.12662 -4.2937,-1.215 6.54981,-10.99768 13.10261,-21.99351 19.65463,-32.98991 z m 58.16851,6.9e-4 c 7.67435,0.0394 15.35444,-0.0541 23.02378,0.26517 0.0379,2.63069 0.50195,5.98733 -2.26702,7.50265 -3.39625,2.10036 -8.34314,0.70777 -10.92048,4.30085 -3.74796,3.95528 -1.69955,11.17671 3.48772,12.70389 1.56934,0.61406 3.44789,0.55685 4.92819,1.17357 0.25312,3.34233 -1.59648,7.29935 -5.29432,7.64214 -7.55673,1.0045 -15.24227,0.41875 -22.85115,0.61376 -5.25845,0.006 -10.51694,-0.004 -15.77525,-0.0434 3.01741,-11.39131 6.07207,-22.77272 9.11228,-34.15796 l 16.55625,-6.9e-4 z m 121.25776,0.0532 c 9.7987,0.0495 19.63042,0.002 29.40777,0.17332 1.8378,0.7866 0.85904,3.47634 0.94465,5.00706 -0.11092,3.04559 -1.38359,6.48591 -4.64591,7.3238 -4.17743,1.36714 -9.67278,0.002 -12.47007,4.19505 -2.82811,3.342 -1.63928,8.28445 1.07978,11.32385 1.39486,2.04265 2.78971,4.08531 4.18457,6.12796 -1.94107,-0.45703 -4.99856,1.01002 -6.08447,-0.92084 -2.58897,-4.19126 -4.61335,-8.72094 -7.17793,-12.90244 -3.09256,-4.08599 -10.01564,-4.0174 -12.84474,0.33686 -2.22462,3.59249 -2.51674,8.05238 -3.80891,12.03506 -0.0121,2.68822 -3.43866,0.97195 -5.16308,1.45136 3.05294,-11.37406 6.09656,-22.75066 9.11298,-34.13447 2.48843,-0.0145 4.9769,-0.0164 7.46536,-0.0166 z m -244.04575,20.45499 c 3.36023,0.12877 6.85542,-0.22505 10.10735,0.78514 0.74686,5.21924 -1.18379,11.95552 -6.97923,13.25065 -1.87039,0.55478 -4.32786,0.97118 -5.94343,1.02752 5.21834,-3.04872 6.74663,-10.40433 2.81531,-15.06331 z"
       id="path22"
       transform="matrix(0.26458333,0,0,0.26458333,-119.49613,110.86523)"
       sodipodi:nodetypes="scccccccccccccccccccccccccccccccccccccsscccccccccscccccccssccccccccccsccccccccccssccccccccccccssccccc" />
    <path
       style="display:inline;fill:#fef105;fill-opacity:1;stroke:#fef105;stroke-width:5.34506;stroke-opacity:1"
       d="m 379.61345,90.593222 c -8.09346,0.08136 -16.34766,0.894204 -23.9415,3.798628 -3.13694,-1.9945 -6.76758,-2.95384 -10.47814,-2.521424 -17.07682,0.18943 -34.16786,-0.149455 -51.23557,0.444298 -3.02481,0.752588 -6.03293,-0.42419 -9.12251,-0.201192 -9.88077,0.03999 -19.78702,-0.368036 -29.65236,0.252291 -1.81808,0.02566 -3.61584,1.030466 -5.24046,1.276797 -6.24536,-2.533589 -13.1806,-1.471252 -19.74996,-1.763091 -7.19006,0.248172 -14.57537,-0.620062 -21.60681,1.229999 -6.37337,1.979792 -10.76841,7.940832 -12.05008,14.328092 -4.69212,16.7798 -9.32202,33.59391 -13.19722,50.58279 -1.63127,10.23084 7.77045,20.18838 18.01823,19.65167 7.70454,0.004 15.45757,0.59145 23.13414,-0.17654 2.56862,-0.71044 5.23121,0.47911 7.89902,0.18782 5.34284,-0.15287 10.82493,0.52105 16.06182,-0.74853 6.52579,1.3354 13.2684,0.5412 19.88461,0.7636 3.59564,0.0605 7.27562,-0.10026 10.782,-0.56749 8.16562,0.97575 16.43899,0.38072 24.64792,0.57292 10.97072,-0.17447 21.97857,0.41328 32.92466,-0.45415 2.7084,-0.25457 5.35393,-1.45007 7.41357,-3.0639 9.23458,4.82526 19.88892,5.47009 30.10107,4.87241 6.45841,-0.27847 12.94792,-0.80795 19.25416,-2.23595 10.14941,0.10672 20.32148,0.41632 30.45823,0.2757 2.86553,-0.26811 5.43636,-1.83648 7.7352,-3.48185 3.37379,2.59648 7.56296,4.09379 11.84611,3.5569 8.00112,-0.21514 16.06827,0.4548 24.02644,-0.51095 6.98529,-1.64741 12.16012,-8.41922 12.94418,-15.36645 -0.0269,-17.34809 0.5024,-34.70412 0.06,-52.04762 5.1e-4,-4.59976 -1.73503,-9.17818 -5.33093,-12.158925 -4.70838,-5.184154 -12.25851,-4.274952 -18.5753,-4.478235 -10.60316,0.04839 -21.23127,-0.162428 -31.81878,0.09692 -3.08575,0.328496 -5.89658,2.137715 -8.33583,3.835099 -5.2086,-3.10559 -11.49779,-3.458789 -17.34069,-4.55131 -6.46075,-0.923457 -12.98665,-1.437713 -19.51518,-1.398331 z m 1.76708,25.793518 c 5.23936,-0.0185 10.46198,0.523 15.62816,1.36725 -1.75946,0.3831 -4.27397,-0.20733 -6.32129,-0.10782 -7.43777,-0.0823 -15.69388,-0.84175 -22.03618,3.8664 -6.36952,4.7627 -9.34267,13.00906 -9.57701,20.74986 -0.0572,4.04855 1.32235,8.32011 4.56374,10.92355 -3.45873,-0.32171 -7.78974,-0.77169 -9.7828,-4.00509 -1.53292,-5.01095 0.20146,-10.32561 1.31133,-15.25942 1.79609,-6.30423 4.67331,-13.61855 11.34202,-16.04663 4.82718,-1.30244 9.89799,-1.43865 14.87203,-1.4881 z m -153.20049,1.39142 c 2.12386,0 4.24771,0 6.37156,0 0.0909,2.7563 0.16128,5.56366 0.2189,8.28503 -3.30431,-4.21018 -10.61207,-3.55019 -13.04111,1.25689 -2.02707,5.01266 -2.80426,10.51133 -4.33885,15.71592 -0.76714,2.98464 -1.54106,5.96756 -2.32788,8.94707 -2.53406,0.23789 -4.85211,0.30994 -3.11367,-2.73245 2.80641,-10.49113 5.6062,-20.98396 8.4225,-31.47246 2.60285,0 5.2057,0 7.80855,0 z m 44.4552,0 c 1.51924,0.29536 5.16809,-1.03931 3.4802,1.71277 -2.97973,10.77048 -5.68125,21.87493 -8.83944,32.43759 -2.54906,0.28583 -4.59006,0.18409 -2.90573,-2.75941 1.22231,-5.48065 3.42179,-10.76252 4.14131,-16.33769 0.21623,-4.97037 -4.9288,-9.36474 -9.78784,-7.96147 1.37071,-2.36393 2.74142,-4.72786 4.11213,-7.09179 3.26646,0 6.53291,0 9.79937,0 z m 182.87273,0.90598 c -0.0336,11.14499 -0.18969,22.16374 -0.35356,33.29893 -1.56667,-0.53837 -5.03405,1.16217 -5.18268,-1.04659 -0.94904,-4.36312 -5.69126,-6.62457 -9.88602,-6.01347 -5.84698,0.28535 -11.77937,-0.34856 -17.56317,0.61669 -2.91786,1.08301 -4.58199,3.7935 -5.92064,6.43854 -1.34474,-0.45944 -6.28055,1.12656 -4.32127,-1.21483 6.5042,-10.95905 13.04353,-21.88094 19.57171,-32.83126 7.88521,-0.0401 15.77042,-0.0802 23.65563,-0.11946 0,0.29048 0,0.58097 0,0.87145 z m -143.40181,-0.83416 c 2.50266,0.0413 4.61524,-0.0815 0.95042,0.0749 -4.30474,0.12324 -7.28864,3.9522 -7.9255,7.95669 -0.83601,2.93267 -1.61023,6.32914 0.14846,9.06464 -3.80913,2.03154 -4.31363,6.7866 -5.25703,10.58519 -0.10699,2.28141 0.33299,4.8454 2.10613,6.44338 -2.87887,-0.007 -5.75772,-0.0181 -8.63652,-0.0394 3.03016,-11.35705 6.08804,-22.70677 9.19654,-34.04264 3.13905,-0.0313 6.27832,-0.036 9.4175,-0.0428 z m -73.42448,25.38265 c 1.06868,1.52868 5.92039,0.24042 3.92288,2.40413 -1.36501,2.0648 -2.65211,4.2771 -4.07479,6.24204 -0.29466,-3.18744 -0.58351,-6.37541 -0.86662,-9.56389 0.33951,0.3059 0.67902,0.61181 1.01853,0.91772 z m 151.44101,0.35493 c 0.33076,1.03577 -0.70352,3.11751 -0.95028,4.5807 -0.61495,1.57896 -0.36592,4.15294 -2.73318,3.79345 -1.146,0.18976 -2.29364,0.36938 -3.44285,0.53857 1.40669,-2.78699 1.75788,-5.9512 2.67927,-8.91272 1.48235,0 2.96469,0 4.44704,0 z"
       id="path23"
       transform="matrix(0.26458333,0,0,0.26458333,-119.49613,110.86523)" />
    <path
       style="fill:#f9911e;fill-opacity:1;stroke:#f9911e;stroke-width:2.67253;stroke-opacity:1"
       d="m 445.43135,101.73361 c -6.25179,0.0627 -12.51353,-0.0633 -18.75911,0.11744 -3.12424,0.16739 -5.64515,2.48447 -6.96208,5.19569 -9.74409,16.36913 -19.54933,32.70466 -29.2453,49.10067 -2.12056,3.59212 -0.80986,8.67157 2.82288,10.74196 2.87732,1.81249 6.40602,1.00011 9.61293,1.18017 6.32407,-0.0488 12.65765,0.0906 18.97575,-0.0763 3.16558,-0.16481 5.72609,-2.52882 7.01548,-5.29943 0.59583,-0.82889 0.81278,-2.31468 2.14285,-1.87047 1.09266,0 2.18531,0 3.27797,0 0.25622,3.9968 3.94759,7.27971 7.92664,7.24784 7.13406,-0.0358 14.27529,0.071 21.40492,-0.0532 4.12393,-0.14725 7.55909,-3.95251 7.47961,-8.04594 0.34531,-13.96175 0.24022,-27.93105 0.34787,-41.89614 -0.0913,-3.37012 0.26144,-6.77529 -0.1709,-10.12078 -0.77673,-3.77653 -4.52017,-6.51734 -8.3441,-6.26541 -5.8418,0.0146 -11.68361,0.0293 -17.52541,0.0439 z"
       id="path8"
       transform="matrix(0.26458333,0,0,0.26458333,-119.49613,110.86523)" />
    <path
       style="fill:#f9911e;fill-opacity:1;stroke:#f9911e;stroke-width:3.77953;stroke-opacity:1"
       d="m 378.93262,100.41943 c -6.60667,0.0276 -13.32822,0.76381 -19.56317,3.03298 -9.58024,4.02919 -15.53587,13.47094 -18.67055,23.00177 -2.23216,7.22243 -3.99478,14.83855 -3.2418,22.44057 0.63838,7.267 5.2656,13.98648 11.92366,17.01796 9.59535,4.4932 20.53543,3.88178 30.82025,3.03373 3.70357,-0.46131 7.5122,-0.64907 11.08309,-1.74641 2.99978,-1.22308 4.80283,-4.33276 5.01424,-7.46663 3.67645,-6.91802 8.12008,-13.41555 11.68017,-20.3916 0.88454,-2.1162 0.965,-4.51487 0.0996,-6.65088 3.08125,-2.57639 3.06024,-6.94462 4.28541,-10.48991 0.80684,-3.64917 2.28494,-7.20001 2.5309,-10.93872 -0.0493,-4.05737 -3.5001,-7.39278 -7.44294,-7.84211 -8.92008,-1.94614 -18.0249,-3.10944 -27.16682,-3.00124 -0.45069,5.2e-4 -0.90138,-9.1e-4 -1.35205,4.9e-4 z"
       id="path9"
       transform="matrix(0.26458333,0,0,0.26458333,-119.49613,110.86523)" />
    <path
       style="fill:#f9911e;fill-opacity:1;stroke:#f9911e;stroke-width:3.77953;stroke-opacity:1"
       d="m 316.58984,101.62744 c -7.11701,0.0989 -14.25507,-0.15084 -21.35932,0.23744 -3.59577,0.5624 -6.27014,3.69516 -6.82059,7.21094 -4.30988,16.37384 -8.79011,32.71226 -13.0658,49.08905 -1.12791,4.53276 2.51675,9.34964 7.14317,9.68816 9.7241,0.45474 19.47252,0.13152 29.20605,0.20161 7.46511,-0.0828 14.9474,0.0904 22.40174,-0.15298 3.84879,-0.22071 6.7557,-3.59717 7.3506,-7.25921 1.16899,-4.42644 2.81817,-8.93271 2.03507,-13.58336 -0.0329,-1.40388 -0.80743,-2.73777 -0.10218,-4.07993 0.49712,-3.19716 0.9492,-6.40809 1.72493,-9.55533 -0.012,0.37217 0.38616,-2.1152 0.29297,-2.87403 1.56594,-2.78272 2.45778,-6.17419 4.08496,-9.05712 2.13279,-4.10069 5.89327,-7.96937 5.17256,-12.94843 -0.42271,-4.26206 -4.69497,-7.32838 -8.86445,-6.91925 -9.73324,0.001 -19.46647,-0.003 -29.19971,0.002 z"
       id="path10"
       transform="matrix(0.26458333,0,0,0.26458333,-119.49613,110.86523)" />
    <path
       style="fill:#f9911e;fill-opacity:1;stroke:#f9911e;stroke-width:3.77953;stroke-opacity:1"
       d="m 223.87939,101.62695 c -4.1567,0.21831 -8.49206,-0.49585 -12.51074,0.83106 -3.29822,1.22057 -5.02024,4.59107 -5.57052,7.87967 -4.25533,16.02208 -8.62602,32.02055 -12.82033,48.05455 -0.9724,4.57575 2.77844,9.23722 7.39818,9.52867 6.99351,0.3786 14.01515,0.15789 21.01403,0.17191 1.746,-0.0981 3.4858,-0.67649 4.8097,-1.84476 3.26358,2.76858 7.75042,1.65013 11.65966,1.86475 3.52941,-0.0741 7.61122,0.57558 10.39502,-2.13087 3.50387,2.9574 8.36383,1.90134 12.56592,2.14158 4.79857,-0.12707 9.63287,0.29315 14.40381,-0.26365 3.47001,-0.93055 5.84846,-4.22351 6.06006,-7.74853 4.11545,-16.33537 8.68584,-32.5604 12.82882,-48.8834 1.04626,-4.53004 -2.60767,-9.38452 -7.27214,-9.53394 -9.57848,-0.13981 -19.1817,-0.0657 -28.76407,-0.0368 -3.50376,0.034 -6.27958,2.64667 -7.67608,5.68537 -0.70563,1.6813 -0.78098,-1.85276 -1.75394,-2.35677 -1.93931,-2.94242 -5.66904,-3.63841 -8.95732,-3.36079 -5.27002,4.4e-4 -10.54004,-0.001 -15.81006,0.002 z"
       id="path11"
       transform="matrix(0.26458333,0,0,0.26458333,-119.49613,110.86523)" />
    <path
       style="fill:#f9911e;fill-opacity:1;stroke:#f9911e;stroke-width:3.77953;stroke-opacity:1"
       d="m 532.64062,100.41162 c -8.2845,0.186 -17.18442,0.49383 -24.37207,5.12549 -7.88806,5.45707 -12.10785,15.15917 -12.45996,24.56445 -0.0645,2.91491 0.31468,5.86403 1.33594,8.60498 -3.24387,1.10591 -5.05382,4.34552 -5.58252,7.57617 -0.93461,4.03221 -2.27418,8.00431 -2.89768,12.08977 -0.51261,4.44607 3.27688,8.49438 7.65256,8.79646 9.82653,1.37977 19.72267,2.66068 29.66893,2.34264 6.94736,-0.0919 14.15468,0.0298 20.63527,-2.87242 7.89686,-3.03066 13.39869,-10.51939 15.09276,-18.66549 0.81734,-4.09648 0.89887,-8.38438 0.2549,-12.50834 -0.42944,-1.33392 -1.05034,-2.47851 0.71115,-2.97346 3.20683,-2.59399 3.30459,-7.02596 4.48123,-10.67205 0.80203,-3.735 2.15485,-7.41097 2.39298,-11.23351 0.0535,-4.22738 -3.60587,-7.79888 -7.74797,-8.09668 -9.64642,-1.42052 -19.415,-2.11536 -29.16552,-2.07801 z"
       id="path12"
       transform="matrix(0.26458333,0,0,0.26458333,-119.49613,110.86523)" />
    <path
       style="fill:#f9911e;fill-opacity:1;stroke:#f9911e;stroke-width:3.77953;stroke-opacity:1"
       d="m 600.81152,101.62744 c -6.3071,0.0842 -12.63589,-0.16654 -18.92917,0.1312 -3.60831,0.24551 -5.90346,3.39233 -7.41542,6.35376 -5.6008,9.58914 -11.55475,18.98009 -16.87123,28.73086 -1.8888,3.37356 -1.10768,7.37394 -2.21826,10.97412 -0.67379,3.48985 -3.02088,6.23243 -4.51904,9.35059 -1.56649,4.29351 1.18218,9.44384 5.63607,10.49425 4.58995,0.81849 9.30557,0.25313 13.94588,0.3818 3.87153,-0.21375 8.40348,0.78426 11.49862,-2.1772 1.53901,-1.46102 2.40348,-3.45766 3.50927,-5.24182 1.45557,0 2.91113,0 4.3667,0 0.13829,4.39445 4.37276,7.8527 8.68506,7.5 6.96795,-0.0853 13.95796,0.17044 20.91208,-0.12876 4.20505,-0.3576 7.29769,-4.49483 7.03632,-8.61144 0.48646,-16.58115 0.23022,-33.17372 0.3016,-49.7598 0.007,-4.19052 -3.56782,-7.89001 -7.76375,-7.98912 -6.05678,-0.0247 -12.11681,-0.002 -18.17473,-0.008 z"
       id="path13"
       transform="matrix(0.26458333,0,0,0.26458333,-119.49613,110.86523)" />
    <path
       style="fill:#f9911e;fill-opacity:1;stroke:#f9911e;stroke-width:2.67253;stroke-opacity:1"
       d="m 645.88231,101.69943 c -3.76839,0.11825 -7.58666,-0.23047 -11.31932,0.38739 -3.29961,0.70252 -5.84138,3.56283 -6.41182,6.85356 -2.42526,9.1967 -4.97724,18.36695 -7.30826,27.58418 -0.41647,3.28048 -0.14993,6.61844 -0.29191,9.92183 -0.0649,4.49701 -0.1087,8.96331 -0.31746,13.40716 -0.19492,4.16686 3.33857,8.04424 7.51785,8.17589 12.55667,0.0788 25.12393,0.0635 37.68403,-0.0437 6.85936,0.0439 14.26079,-0.97064 19.65703,-5.58304 5.34925,-4.29189 8.09819,-11.18594 8.08419,-17.95025 0.096,-2.73643 -0.32859,-5.55259 -1.45496,-8.02434 4.2005,-4.09523 6.35231,-9.96807 6.36845,-15.78354 0.27517,-4.42634 -0.37973,-9.1559 -3.22548,-12.72102 -3.51946,-4.60702 -9.63103,-6.12271 -15.17097,-6.1122 -11.26957,-0.15349 -22.54104,-0.11132 -33.81137,-0.11192 z"
       id="path14"
       transform="matrix(0.26458333,0,0,0.26458333,-119.49613,110.86523)" />
    <path
       style="fill:#f9911e;fill-opacity:1;stroke:#f9911e;stroke-width:2.67253;stroke-opacity:1"
       d="m 726.1158,100.18301 c -6.54149,-0.0181 -13.17925,0.59184 -19.3863,2.76165 -5.61573,2.16544 -10.57135,6.13827 -13.83598,11.19681 -1.60655,2.599 -1.47209,5.71454 -1.64796,8.63996 -0.41921,3.45639 -2.10227,6.62301 -4.36007,9.22492 -1.86868,2.39943 -1.89513,5.70115 -0.83102,8.44757 0.65714,2.7578 0.43899,5.69726 -0.14156,8.4511 -0.848,2.51447 -1.42931,5.386 -0.0865,7.84397 2.83733,5.81971 8.73496,9.60802 14.89081,11.13363 8.52412,2.22535 17.41795,1.81965 26.13071,1.38921 7.78342,-0.69199 15.95726,-2.81219 21.64043,-8.49515 6.32701,-6.38716 9.94764,-14.97234 11.96281,-23.61903 1.40693,-6.61024 2.03779,-13.58436 0.43849,-20.21779 -1.2227,-4.83292 -4.27656,-9.21443 -8.63824,-11.70594 -6.58314,-3.85769 -14.38273,-4.99149 -21.90813,-5.03309 -1.40904,-0.0234 -2.81836,-0.0269 -4.22754,-0.0178 z"
       id="path15"
       transform="matrix(0.26458333,0,0,0.26458333,-119.49613,110.86523)" />
    <path
       style="fill:#f9911e;fill-opacity:1;stroke:#f9911e;stroke-width:3.77953;stroke-opacity:1"
       d="m 764.58301,102.01514 c -3.37552,0.89048 -5.57825,4.00064 -6.13746,7.33373 -1.44926,5.88709 -3.76546,11.70961 -3.44946,17.87574 -0.36652,8.55207 -3.13049,16.88126 -7.37305,24.27441 -1.59267,3.75581 -3.59836,8.33659 -1.31003,12.23037 1.59531,3.25328 5.42175,4.48518 8.83689,4.31211 6.68215,0.0857 13.38258,0.18534 20.05528,-0.0131 2.62909,-0.17238 5.05528,-1.85226 6.28408,-4.15587 1.68377,3.17044 5.36246,4.60918 8.82177,4.25244 8.14974,-0.0698 16.311,0.15615 24.45361,-0.1836 4.54062,-0.53798 7.98292,-5.39871 6.69126,-9.83919 -0.87353,-3.25225 -3.43282,-5.72105 -5.1069,-8.58158 -1.09361,-1.60852 -2.19191,-3.21401 -3.28699,-4.82141 6.86211,-2.77627 11.65978,-9.39393 12.91013,-16.6029 1.36596,-7.05412 1.05092,-15.28361 -4.15281,-20.78626 -3.50578,-3.74732 -8.66984,-5.51212 -13.73246,-5.42749 -13.90001,-0.25337 -27.81105,-0.10969 -41.70979,-0.10038 -0.59803,0.0777 -1.19605,0.1553 -1.79407,0.23295 z"
       id="path16"
       transform="matrix(0.26458333,0,0,0.26458333,-119.49613,110.86523)" />
    <text
       xml:space="preserve"
       style="font-style:italic;font-variant:normal;font-weight:900;font-stretch:normal;font-size:50.8px;line-height:0px;font-family:'Incised 901 Nord';-inkscape-font-specification:'Incised 901 Nord Heavy Italic';text-align:start;writing-mode:lr-tb;direction:ltr;text-anchor:start;fill:#ed1b24;fill-opacity:1;stroke-width:4"
       x="-102.49187"
       y="165.431"
       id="text1"
       transform="matrix(0.35386751,0,0,0.35386751,-29.627252,94.696236)"><tspan
         id="tspan1"
         style="font-size:50.8px;fill:#ed1b24;fill-opacity:1;stroke-width:4"
         x="-102.49187"
         y="165.431"
         sodipodi:role="line">MEGA SABOR</tspan></text>
  </g>
</svg>
